<?xml version="1.0" standalone="no"?>
<!DOCTYPE svg PUBLIC "-//W3C//DTD SVG 20010904//EN"
 "http://www.w3.org/TR/2001/REC-SVG-20010904/DTD/svg10.dtd">
<svg version="1.0" xmlns="http://www.w3.org/2000/svg"
 width="124.000000pt" height="71.000000pt" viewBox="0 0 124.000000 71.000000"
 preserveAspectRatio="xMidYMid meet">

<g transform="translate(0.000000,71.000000) scale(0.100000,-0.100000)"
fill="#000" stroke="none">

<path d="M207 418 c-10 -128 -20 -266 -24 -305 -5 -64 -4 -73 11 -73 11 0 16
9 16 33 1 58 37 528 42 532 2 2 49 -123 105 -278 131 -367 115 -363 242 -70
52 120 110 250 128 288 l33 70 -2 -288 c-3 -268 -2 -287 15 -287 16 0 17 20
17 289 0 159 3 296 6 305 5 13 -1 16 -25 16 -26 0 -33 -6 -46 -37 -74 -178
-240 -532 -246 -526 -4 4 -51 133 -105 286 -94 268 -98 277 -124 277 l-26 0
-17 -232z"/>
<path d="M933 515 c-68 -74 -123 -143 -123 -153 0 -10 44 -67 98 -128 53 -60
113 -129 133 -153 25 -30 41 -42 56 -39 18 2 -2 29 -122 163 l-144 160 47 50
c26 28 84 89 130 136 45 48 82 89 82 93 0 3 -8 6 -17 6 -10 0 -73 -61 -140
-135z"/>
</g>
</svg>
